<?xml version="1.0" encoding="UTF-8" standalone="no"?><!DOCTYPE svg PUBLIC "-//W3C//DTD SVG 1.1//EN" "http://www.w3.org/Graphics/SVG/1.1/DTD/svg11.dtd"><!-- Generated by graphviz version 2.40.1 (20161225.0304)
 --><!-- Title: cscd212&#45;s22&#45;lab3&#45;sol Pages: 1 --><svg xmlns="http://www.w3.org/2000/svg" xmlns:xlink="http://www.w3.org/1999/xlink" width="1233pt" height="1628pt" viewBox="0.00 0.00 1232.56 1628.40">
<g id="graph0" class="graph" transform="scale(1 1) rotate(0) translate(4 1624.4)">
<title>cscd212-s22-lab3-sol</title>
<polygon fill="#ffffff" stroke="transparent" points="-4,4 -4,-1624.4 1228.5625,-1624.4 1228.5625,4 -4,4"/>
<!-- Agent -->
<g id="node1" class="node">
<title>Agent</title>
<polygon fill="none" stroke="#000000" points="630,-255.3 630,-690.5 1021.6634,-690.5 1021.6634,-255.3 630,-255.3"/>
<text text-anchor="middle" x="825.8317" y="-673.9" font-family="Times,serif" font-size="14.00" fill="#000000">Agent</text>
<polyline fill="none" stroke="#000000" points="630,-665.7 1021.6634,-665.7 "/>
<text text-anchor="start" x="638" y="-649.1" font-family="Times,serif" font-size="14.00" fill="#000000">+ Agent(String) : </text>
<text text-anchor="start" x="638" y="-632.3" font-family="Times,serif" font-size="14.00" fill="#000000"> + Agent(String, int, int) : </text>
<polyline fill="none" stroke="#000000" points="630,-624.1 1021.6634,-624.1 "/>
<text text-anchor="start" x="638" y="-607.5" font-family="Times,serif" font-size="14.00" fill="#000000">+ color : Color</text>
<text text-anchor="start" x="638" y="-590.7" font-family="Times,serif" font-size="14.00" fill="#000000"> + y : int</text>
<text text-anchor="start" x="638" y="-573.9" font-family="Times,serif" font-size="14.00" fill="#000000"> + moveToX : int</text>
<text text-anchor="start" x="638" y="-557.1" font-family="Times,serif" font-size="14.00" fill="#000000"> + name : String</text>
<text text-anchor="start" x="638" y="-540.3" font-family="Times,serif" font-size="14.00" fill="#000000"> + x : int</text>
<text text-anchor="start" x="638" y="-523.5" font-family="Times,serif" font-size="14.00" fill="#000000"> + pcs : PropertyChangeSupport</text>
<text text-anchor="start" x="638" y="-506.7" font-family="Times,serif" font-size="14.00" fill="#000000"> + moveToY : int</text>
<polyline fill="none" stroke="#000000" points="630,-498.5 1021.6634,-498.5 "/>
<text text-anchor="start" x="638" y="-481.9" font-family="Times,serif" font-size="14.00" fill="#000000">+ getX() : int</text>
<text text-anchor="start" x="638" y="-465.1" font-family="Times,serif" font-size="14.00" fill="#000000"> + getColor() : Color</text>
<text text-anchor="start" x="638" y="-448.3" font-family="Times,serif" font-size="14.00" fill="#000000"> + setColor(Color) : void</text>
<text text-anchor="start" x="638" y="-431.5" font-family="Times,serif" font-size="14.00" fill="#000000"> + move(int, int) : void</text>
<text text-anchor="start" x="638" y="-414.7" font-family="Times,serif" font-size="14.00" fill="#000000"> + upDate() : void</text>
<text text-anchor="start" x="638" y="-397.9" font-family="Times,serif" font-size="14.00" fill="#000000"> + setX(int) : void</text>
<text text-anchor="start" x="638" y="-381.1" font-family="Times,serif" font-size="14.00" fill="#000000"> + setY(int) : void</text>
<text text-anchor="start" x="638" y="-364.3" font-family="Times,serif" font-size="14.00" fill="#000000"> + getName() : String</text>
<text text-anchor="start" x="638" y="-347.5" font-family="Times,serif" font-size="14.00" fill="#000000"> + addPropertyChangeListener(PropertyChangeListener) : void</text>
<text text-anchor="start" x="638" y="-330.7" font-family="Times,serif" font-size="14.00" fill="#000000"> + getY() : int</text>
<text text-anchor="start" x="638" y="-313.9" font-family="Times,serif" font-size="14.00" fill="#000000"> + updateY(int) : void</text>
<text text-anchor="start" x="638" y="-297.1" font-family="Times,serif" font-size="14.00" fill="#000000"> + updateX(int) : void</text>
<text text-anchor="start" x="638" y="-280.3" font-family="Times,serif" font-size="14.00" fill="#000000"> + toString() : String</text>
<text text-anchor="start" x="638" y="-263.5" font-family="Times,serif" font-size="14.00" fill="#000000"> + removePropertyChangeListener(PropertyChangeListener) : void</text>
</g>
<!-- Color -->
<g id="node4" class="node">
<title>Color</title>
<polygon fill="none" stroke="#000000" points="207.2261,-.5 207.2261,-217.3 402.4373,-217.3 402.4373,-.5 207.2261,-.5"/>
<text text-anchor="middle" x="304.8317" y="-200.7" font-family="Times,serif" font-size="14.00" fill="#000000">Color</text>
<polyline fill="none" stroke="#000000" points="207.2261,-192.5 402.4373,-192.5 "/>
<text text-anchor="start" x="215.2261" y="-175.9" font-family="Times,serif" font-size="14.00" fill="#000000">+ Color(String, short[]) : </text>
<polyline fill="none" stroke="#000000" points="207.2261,-167.7 402.4373,-167.7 "/>
<text text-anchor="start" x="215.2261" y="-151.1" font-family="Times,serif" font-size="14.00" fill="#000000">+ name : String</text>
<text text-anchor="start" x="215.2261" y="-134.3" font-family="Times,serif" font-size="14.00" fill="#000000"> + rgba : short[]</text>
<text text-anchor="start" x="215.2261" y="-117.5" font-family="Times,serif" font-size="14.00" fill="#000000"> + allColors : ArrayList&lt;Color&gt;</text>
<polyline fill="none" stroke="#000000" points="207.2261,-109.3 402.4373,-109.3 "/>
<text text-anchor="start" x="215.2261" y="-92.7" font-family="Times,serif" font-size="14.00" fill="#000000">+ getGreen() : short</text>
<text text-anchor="start" x="215.2261" y="-75.9" font-family="Times,serif" font-size="14.00" fill="#000000"> + getBlue() : short</text>
<text text-anchor="start" x="215.2261" y="-59.1" font-family="Times,serif" font-size="14.00" fill="#000000"> + getRed() : short</text>
<text text-anchor="start" x="215.2261" y="-42.3" font-family="Times,serif" font-size="14.00" fill="#000000"> + getAlpha() : short</text>
<text text-anchor="start" x="215.2261" y="-25.5" font-family="Times,serif" font-size="14.00" fill="#000000"> + getAllColors() : Color[]</text>
<text text-anchor="start" x="215.2261" y="-8.7" font-family="Times,serif" font-size="14.00" fill="#000000"> + getName() : String</text>
</g>
<!-- Agent&#45;&gt;Color -->
<g id="edge1" class="edge">
<title>Agent-&gt;Color</title>
<path fill="none" stroke="#595959" d="M617.9684,-330C617.9684,-330 368.679,-330 368.679,-330 368.679,-330 368.679,-227.5068 368.679,-227.5068"/>
<polygon fill="#595959" stroke="#595959" points="617.9684,-330.0001 623.9684,-326 629.9684,-330 623.9684,-334 617.9684,-330.0001"/>
<polygon fill="#595959" stroke="#595959" points="368.679,-217.5068 373.1791,-227.5068 368.6791,-222.5068 368.6791,-227.5068 368.6791,-227.5068 368.6791,-227.5068 368.6791,-222.5068 364.1791,-227.5069 368.679,-217.5068 368.679,-217.5068"/>
<text text-anchor="middle" x="354.2961" y="-238.5068" font-family="Times,serif" font-size="14.00" fill="#000000">color</text>
<text text-anchor="middle" x="354.2961" y="-221.7068" font-family="Times,serif" font-size="14.00" fill="#000000">1</text>
<text text-anchor="middle" x="626.4684" y="-334.2" font-family="Times,serif" font-size="14.00" fill="#000000">1</text>
</g>
<!-- BasicMain -->
<g id="node2" class="node">
<title>BasicMain</title>
<polygon fill="none" stroke="#000000" points="503.0704,-1361.1 503.0704,-1594.7 700.593,-1594.7 700.593,-1361.1 503.0704,-1361.1"/>
<text text-anchor="middle" x="601.8317" y="-1578.1" font-family="Times,serif" font-size="14.00" fill="#000000">BasicMain</text>
<polyline fill="none" stroke="#000000" points="503.0704,-1569.9 700.593,-1569.9 "/>
<text text-anchor="start" x="511.0704" y="-1553.3" font-family="Times,serif" font-size="14.00" fill="#000000">+ BasicMain() : </text>
<polyline fill="none" stroke="#000000" points="503.0704,-1545.1 700.593,-1545.1 "/>
<text text-anchor="start" x="511.0704" y="-1528.5" font-family="Times,serif" font-size="14.00" fill="#000000">+ state : int</text>
<text text-anchor="start" x="511.0704" y="-1511.7" font-family="Times,serif" font-size="14.00" fill="#000000"> + enemies : ArrayList&lt;Enemy&gt;</text>
<text text-anchor="start" x="511.0704" y="-1494.9" font-family="Times,serif" font-size="14.00" fill="#000000"> + hero : Player</text>
<text text-anchor="start" x="511.0704" y="-1478.1" font-family="Times,serif" font-size="14.00" fill="#000000"> + npcs : ArrayList&lt;Agent&gt;</text>
<text text-anchor="start" x="511.0704" y="-1461.3" font-family="Times,serif" font-size="14.00" fill="#000000"> + gm : GameMaster</text>
<polyline fill="none" stroke="#000000" points="503.0704,-1453.1 700.593,-1453.1 "/>
<text text-anchor="start" x="511.0704" y="-1436.5" font-family="Times,serif" font-size="14.00" fill="#000000">+ updateAgents() : void</text>
<text text-anchor="start" x="511.0704" y="-1419.7" font-family="Times,serif" font-size="14.00" fill="#000000"> + setUpGame() : void</text>
<text text-anchor="start" x="511.0704" y="-1402.9" font-family="Times,serif" font-size="14.00" fill="#000000"> + runNext() : boolean</text>
<text text-anchor="start" x="511.0704" y="-1386.1" font-family="Times,serif" font-size="14.00" fill="#000000"> + printCurrent() : void</text>
<text text-anchor="start" x="511.0704" y="-1369.3" font-family="Times,serif" font-size="14.00" fill="#000000"> + main(String[]) : void</text>
</g>
<!-- BasicMain&#45;&gt;Agent -->
<g id="edge2" class="edge">
<title>BasicMain-&gt;Agent</title>
<path fill="none" stroke="#595959" d="M642.7302,-1348.6468C642.7302,-1348.6468 642.7302,-700.6726 642.7302,-700.6726"/>
<polygon fill="#595959" stroke="#595959" points="642.7302,-702.6726 638.7302,-696.6726 642.7302,-690.6726 646.7302,-696.6726 642.7302,-702.6726"/>
<polygon fill="#595959" stroke="#595959" points="642.7302,-1360.6468 638.2302,-1350.6468 642.7302,-1355.6468 642.7302,-1350.6468 642.7302,-1350.6468 642.7302,-1350.6468 642.7302,-1355.6468 647.2302,-1350.6468 642.7302,-1360.6468 642.7302,-1360.6468"/>
<text text-anchor="middle" x="629.9006" y="-1348.0468" font-family="Times,serif" font-size="14.00" fill="#000000">npcs</text>
<text text-anchor="middle" x="629.9006" y="-1331.2468" font-family="Times,serif" font-size="14.00" fill="#000000">*</text>
<text text-anchor="middle" x="639.2302" y="-694.8726" font-family="Times,serif" font-size="14.00" fill="#000000">1</text>
</g>
<!-- Enemy -->
<g id="node5" class="node">
<title>Enemy</title>
<polygon fill="none" stroke="#000000" points="334.9208,-744.3 334.9208,-927.5 624.7426,-927.5 624.7426,-744.3 334.9208,-744.3"/>
<text text-anchor="middle" x="479.8317" y="-910.9" font-family="Times,serif" font-size="14.00" fill="#000000">Enemy</text>
<polyline fill="none" stroke="#000000" points="334.9208,-902.7 624.7426,-902.7 "/>
<text text-anchor="start" x="342.9208" y="-886.1" font-family="Times,serif" font-size="14.00" fill="#000000">+ Enemy(String, int) : </text>
<polyline fill="none" stroke="#000000" points="334.9208,-877.9 624.7426,-877.9 "/>
<text text-anchor="start" x="342.9208" y="-861.3" font-family="Times,serif" font-size="14.00" fill="#000000">+ showLifePoints : int</text>
<text text-anchor="start" x="342.9208" y="-844.5" font-family="Times,serif" font-size="14.00" fill="#000000"> + enemyNumber : int</text>
<polyline fill="none" stroke="#000000" points="334.9208,-836.3 624.7426,-836.3 "/>
<text text-anchor="start" x="342.9208" y="-819.7" font-family="Times,serif" font-size="14.00" fill="#000000">+ getEnemyNumber() : int</text>
<text text-anchor="start" x="342.9208" y="-802.9" font-family="Times,serif" font-size="14.00" fill="#000000"> + takeDamage(int) : void</text>
<text text-anchor="start" x="342.9208" y="-786.1" font-family="Times,serif" font-size="14.00" fill="#000000"> + toString() : String</text>
<text text-anchor="start" x="342.9208" y="-769.3" font-family="Times,serif" font-size="14.00" fill="#000000"> + getHealth() : int</text>
<text text-anchor="start" x="342.9208" y="-752.5" font-family="Times,serif" font-size="14.00" fill="#000000"> + propertyChange(PropertyChangeEvent) : void</text>
</g>
<!-- BasicMain&#45;&gt;Enemy -->
<g id="edge3" class="edge">
<title>BasicMain-&gt;Enemy</title>
<path fill="none" stroke="#595959" d="M591.1173,-1348.8938C591.1173,-1348.8938 591.1173,-937.6957 591.1173,-937.6957"/>
<polygon fill="#595959" stroke="#595959" points="591.1173,-939.6957 587.1173,-933.6957 591.1173,-927.6957 595.1173,-933.6957 591.1173,-939.6957"/>
<polygon fill="#595959" stroke="#595959" points="591.1173,-1360.8938 586.6173,-1350.8938 591.1173,-1355.8938 591.1173,-1350.8938 591.1173,-1350.8938 591.1173,-1350.8938 591.1173,-1355.8938 595.6173,-1350.8938 591.1173,-1360.8938 591.1173,-1360.8938"/>
<text text-anchor="middle" x="568.1825" y="-1348.2938" font-family="Times,serif" font-size="14.00" fill="#000000">enemies</text>
<text text-anchor="middle" x="568.1825" y="-1331.4938" font-family="Times,serif" font-size="14.00" fill="#000000">*</text>
<text text-anchor="middle" x="587.6173" y="-931.8957" font-family="Times,serif" font-size="14.00" fill="#000000">1</text>
</g>
<!-- Farmer -->
<g id="node6" class="node">
<title>Farmer</title>
<polygon fill="none" stroke="#000000" points="968.2178,-1073.7 968.2178,-1189.7 1139.4456,-1189.7 1139.4456,-1073.7 968.2178,-1073.7"/>
<text text-anchor="middle" x="1053.8317" y="-1173.1" font-family="Times,serif" font-size="14.00" fill="#000000">Farmer</text>
<polyline fill="none" stroke="#000000" points="968.2178,-1164.9 1139.4456,-1164.9 "/>
<text text-anchor="start" x="976.2178" y="-1148.3" font-family="Times,serif" font-size="14.00" fill="#000000">+ Farmer(String) : </text>
<polyline fill="none" stroke="#000000" points="968.2178,-1140.1 1139.4456,-1140.1 "/>
<text text-anchor="start" x="976.2178" y="-1123.5" font-family="Times,serif" font-size="14.00" fill="#000000">+ enemyAreGone : boolean</text>
<polyline fill="none" stroke="#000000" points="968.2178,-1115.3 1139.4456,-1115.3 "/>
<text text-anchor="start" x="976.2178" y="-1098.7" font-family="Times,serif" font-size="14.00" fill="#000000">+ upDate() : void</text>
<text text-anchor="start" x="976.2178" y="-1081.9" font-family="Times,serif" font-size="14.00" fill="#000000"> + toString() : String</text>
</g>
<!-- BasicMain&#45;&gt;Farmer -->
<g id="edge4" class="edge">
<title>BasicMain-&gt;Farmer</title>
<path fill="none" stroke="#595959" stroke-dasharray="5,2" d="M695.675,-1361.0537C695.675,-1332.0151 695.675,-1309 695.675,-1309 695.675,-1309 983.1188,-1309 983.1188,-1309 983.1188,-1309 983.1188,-1199.7547 983.1188,-1199.7547"/>
<polygon fill="#595959" stroke="#595959" points="983.1188,-1189.7547 987.6189,-1199.7546 983.1188,-1194.7547 983.1189,-1199.7547 983.1189,-1199.7547 983.1189,-1199.7547 983.1188,-1194.7547 978.6189,-1199.7547 983.1188,-1189.7547 983.1188,-1189.7547"/>
<text text-anchor="middle" x="1002.1971" y="-1304.8" font-family="Times,serif" font-size="14.00" fill="#000000">«create»</text>
</g>
<!-- GameMaster -->
<g id="node7" class="node">
<title>GameMaster</title>
<polygon fill="none" stroke="#000000" points="0,-981.3 0,-1282.1 391.6634,-1282.1 391.6634,-981.3 0,-981.3"/>
<text text-anchor="middle" x="195.8317" y="-1265.5" font-family="Times,serif" font-size="14.00" fill="#000000">GameMaster</text>
<polyline fill="none" stroke="#000000" points="0,-1257.3 391.6634,-1257.3 "/>
<text text-anchor="start" x="8" y="-1240.7" font-family="Times,serif" font-size="14.00" fill="#000000">+ GameMaster() : </text>
<polyline fill="none" stroke="#000000" points="0,-1232.5 391.6634,-1232.5 "/>
<text text-anchor="start" x="8" y="-1215.9" font-family="Times,serif" font-size="14.00" fill="#000000">+ map : Canvas</text>
<text text-anchor="start" x="8" y="-1199.1" font-family="Times,serif" font-size="14.00" fill="#000000"> + gameMaster : GameMaster</text>
<text text-anchor="start" x="8" y="-1182.3" font-family="Times,serif" font-size="14.00" fill="#000000"> + pcs : PropertyChangeSupport</text>
<polyline fill="none" stroke="#000000" points="0,-1174.1 391.6634,-1174.1 "/>
<text text-anchor="start" x="8" y="-1157.5" font-family="Times,serif" font-size="14.00" fill="#000000">+ updateColor(PropertyChangeEvent) : void</text>
<text text-anchor="start" x="8" y="-1140.7" font-family="Times,serif" font-size="14.00" fill="#000000"> + getMap() : Canvas</text>
<text text-anchor="start" x="8" y="-1123.9" font-family="Times,serif" font-size="14.00" fill="#000000"> + updateLocation(PropertyChangeEvent) : void</text>
<text text-anchor="start" x="8" y="-1107.1" font-family="Times,serif" font-size="14.00" fill="#000000"> + areaAttack(PropertyChangeEvent) : void</text>
<text text-anchor="start" x="8" y="-1090.3" font-family="Times,serif" font-size="14.00" fill="#000000"> + removePropertyChangeListener(PropertyChangeListener) : void</text>
<text text-anchor="start" x="8" y="-1073.5" font-family="Times,serif" font-size="14.00" fill="#000000"> + getColor(String) : Color</text>
<text text-anchor="start" x="8" y="-1056.7" font-family="Times,serif" font-size="14.00" fill="#000000"> + propertyChange(PropertyChangeEvent) : void</text>
<text text-anchor="start" x="8" y="-1039.9" font-family="Times,serif" font-size="14.00" fill="#000000"> + addPropertyChangeListener(PropertyChangeListener) : void</text>
<text text-anchor="start" x="8" y="-1023.1" font-family="Times,serif" font-size="14.00" fill="#000000"> + makeAllColors() : void</text>
<text text-anchor="start" x="8" y="-1006.3" font-family="Times,serif" font-size="14.00" fill="#000000"> + updateDeath(PropertyChangeEvent) : void</text>
<text text-anchor="start" x="8" y="-989.5" font-family="Times,serif" font-size="14.00" fill="#000000"> + getGameMaster() : GameMaster</text>
</g>
<!-- BasicMain&#45;&gt;GameMaster -->
<g id="edge5" class="edge">
<title>BasicMain-&gt;GameMaster</title>
<path fill="none" stroke="#595959" d="M520.879,-1348.7945C520.879,-1348.7945 520.879,-1251 520.879,-1251 520.879,-1251 401.9448,-1251 401.9448,-1251"/>
<polygon fill="#595959" stroke="#595959" points="520.879,-1348.7945 524.879,-1354.7945 520.879,-1360.7945 516.879,-1354.7944 520.879,-1348.7945"/>
<polygon fill="#595959" stroke="#595959" points="391.9448,-1251 401.9449,-1246.5001 396.9448,-1251 401.9448,-1251.0001 401.9448,-1251.0001 401.9448,-1251.0001 396.9448,-1251 401.9448,-1255.5001 391.9448,-1251 391.9448,-1251"/>
<text text-anchor="middle" x="400.8901" y="-1272" font-family="Times,serif" font-size="14.00" fill="#000000">gm</text>
<text text-anchor="middle" x="400.8901" y="-1255.2" font-family="Times,serif" font-size="14.00" fill="#000000">1</text>
<text text-anchor="middle" x="517.379" y="-1348.1945" font-family="Times,serif" font-size="14.00" fill="#000000">1</text>
</g>
<!-- Goblin -->
<g id="node8" class="node">
<title>Goblin</title>
<polygon fill="none" stroke="#000000" points="447.3588,-1094.5 447.3588,-1168.9 574.3046,-1168.9 574.3046,-1094.5 447.3588,-1094.5"/>
<text text-anchor="middle" x="510.8317" y="-1152.3" font-family="Times,serif" font-size="14.00" fill="#000000">Goblin</text>
<polyline fill="none" stroke="#000000" points="447.3588,-1144.1 574.3046,-1144.1 "/>
<text text-anchor="start" x="455.3588" y="-1127.5" font-family="Times,serif" font-size="14.00" fill="#000000">+ Goblin() : </text>
<polyline fill="none" stroke="#000000" points="447.3588,-1119.3 574.3046,-1119.3 "/>
<text text-anchor="start" x="455.3588" y="-1102.7" font-family="Times,serif" font-size="14.00" fill="#000000">+ toString() : String</text>
</g>
<!-- BasicMain&#45;&gt;Goblin -->
<g id="edge6" class="edge">
<title>BasicMain-&gt;Goblin</title>
<path fill="none" stroke="#595959" stroke-dasharray="5,2" d="M538.6875,-1360.6925C538.6875,-1360.6925 538.6875,-1179.2846 538.6875,-1179.2846"/>
<polygon fill="#595959" stroke="#595959" points="538.6875,-1169.2846 543.1876,-1179.2845 538.6875,-1174.2846 538.6876,-1179.2846 538.6876,-1179.2846 538.6876,-1179.2846 538.6875,-1174.2846 534.1876,-1179.2846 538.6875,-1169.2846 538.6875,-1169.2846"/>
<text text-anchor="middle" x="549.1971" y="-1304.8" font-family="Times,serif" font-size="14.00" fill="#000000">«create»</text>
</g>
<!-- Player -->
<g id="node12" class="node">
<title>Player</title>
<polygon fill="none" stroke="#000000" points="680.9208,-744.3 680.9208,-927.5 970.7426,-927.5 970.7426,-744.3 680.9208,-744.3"/>
<text text-anchor="middle" x="825.8317" y="-910.9" font-family="Times,serif" font-size="14.00" fill="#000000">Player</text>
<polyline fill="none" stroke="#000000" points="680.9208,-902.7 970.7426,-902.7 "/>
<text text-anchor="start" x="688.9208" y="-886.1" font-family="Times,serif" font-size="14.00" fill="#000000">+ Player(String, int) : </text>
<polyline fill="none" stroke="#000000" points="680.9208,-877.9 970.7426,-877.9 "/>
<text text-anchor="start" x="688.9208" y="-861.3" font-family="Times,serif" font-size="14.00" fill="#000000">+ MAX_LIFE_POINTS : int</text>
<text text-anchor="start" x="688.9208" y="-844.5" font-family="Times,serif" font-size="14.00" fill="#000000"> + currentLifePoints : int</text>
<polyline fill="none" stroke="#000000" points="680.9208,-836.3 970.7426,-836.3 "/>
<text text-anchor="start" x="688.9208" y="-819.7" font-family="Times,serif" font-size="14.00" fill="#000000">+ getHealth() : int</text>
<text text-anchor="start" x="688.9208" y="-802.9" font-family="Times,serif" font-size="14.00" fill="#000000"> + useSpecialAbility() : void</text>
<text text-anchor="start" x="688.9208" y="-786.1" font-family="Times,serif" font-size="14.00" fill="#000000"> + toString() : String</text>
<text text-anchor="start" x="688.9208" y="-769.3" font-family="Times,serif" font-size="14.00" fill="#000000"> + propertyChange(PropertyChangeEvent) : void</text>
<text text-anchor="start" x="688.9208" y="-752.5" font-family="Times,serif" font-size="14.00" fill="#000000"> + takeDamage(int) : void</text>
</g>
<!-- BasicMain&#45;&gt;Player -->
<g id="edge7" class="edge">
<title>BasicMain-&gt;Player</title>
<path fill="none" stroke="#595959" d="M685.8389,-1348.8938C685.8389,-1348.8938 685.8389,-937.6957 685.8389,-937.6957"/>
<polygon fill="#595959" stroke="#595959" points="685.8389,-939.6957 681.8389,-933.6957 685.8389,-927.6957 689.8389,-933.6957 685.8389,-939.6957"/>
<polygon fill="#595959" stroke="#595959" points="685.8389,-1360.8938 681.3389,-1350.8938 685.8389,-1355.8938 685.8389,-1350.8938 685.8389,-1350.8938 685.8389,-1350.8938 685.8389,-1355.8938 690.3389,-1350.8938 685.8389,-1360.8938 685.8389,-1360.8938"/>
<text text-anchor="middle" x="673.4013" y="-1348.2938" font-family="Times,serif" font-size="14.00" fill="#000000">hero</text>
<text text-anchor="middle" x="673.4013" y="-1331.4938" font-family="Times,serif" font-size="14.00" fill="#000000">1</text>
<text text-anchor="middle" x="682.3389" y="-931.8957" font-family="Times,serif" font-size="14.00" fill="#000000">1</text>
</g>
<!-- SimpleHero -->
<g id="node13" class="node">
<title>SimpleHero</title>
<polygon fill="none" stroke="#000000" points="706.0902,-1073.7 706.0902,-1189.7 911.5732,-1189.7 911.5732,-1073.7 706.0902,-1073.7"/>
<text text-anchor="middle" x="808.8317" y="-1173.1" font-family="Times,serif" font-size="14.00" fill="#000000">SimpleHero</text>
<polyline fill="none" stroke="#000000" points="706.0902,-1164.9 911.5732,-1164.9 "/>
<text text-anchor="start" x="714.0902" y="-1148.3" font-family="Times,serif" font-size="14.00" fill="#000000">+ SimpleHero(String) : </text>
<polyline fill="none" stroke="#000000" points="706.0902,-1140.1 911.5732,-1140.1 "/>
<text text-anchor="start" x="714.0902" y="-1123.5" font-family="Times,serif" font-size="14.00" fill="#000000">+ timePassAfterUsingAbility : int</text>
<polyline fill="none" stroke="#000000" points="706.0902,-1115.3 911.5732,-1115.3 "/>
<text text-anchor="start" x="714.0902" y="-1098.7" font-family="Times,serif" font-size="14.00" fill="#000000">+ upDate() : void</text>
<text text-anchor="start" x="714.0902" y="-1081.9" font-family="Times,serif" font-size="14.00" fill="#000000"> + useSpecialAbility() : void</text>
</g>
<!-- BasicMain&#45;&gt;SimpleHero -->
<g id="edge8" class="edge">
<title>BasicMain-&gt;SimpleHero</title>
<path fill="none" stroke="#595959" stroke-dasharray="5,2" d="M690.7569,-1361.0533C690.7569,-1277.2205 690.7569,-1179 690.7569,-1179 690.7569,-1179 695.7112,-1179 695.7112,-1179"/>
<polygon fill="#595959" stroke="#595959" points="705.7112,-1179 695.7112,-1183.5001 700.7112,-1179 695.7112,-1179.0001 695.7112,-1179.0001 695.7112,-1179.0001 700.7112,-1179 695.7111,-1174.5001 705.7112,-1179 705.7112,-1179"/>
<text text-anchor="middle" x="810.1971" y="-1304.8" font-family="Times,serif" font-size="14.00" fill="#000000">«create»</text>
</g>
<!-- Canvas -->
<g id="node3" class="node">
<title>Canvas</title>
<polygon fill="none" stroke="#000000" points="55.6747,-744.3 55.6747,-927.5 273.9887,-927.5 273.9887,-744.3 55.6747,-744.3"/>
<text text-anchor="middle" x="164.8317" y="-910.9" font-family="Times,serif" font-size="14.00" fill="#000000">Canvas</text>
<polyline fill="none" stroke="#000000" points="55.6747,-902.7 273.9887,-902.7 "/>
<text text-anchor="start" x="63.6747" y="-886.1" font-family="Times,serif" font-size="14.00" fill="#000000">+ Canvas(int, int) : </text>
<polyline fill="none" stroke="#000000" points="55.6747,-877.9 273.9887,-877.9 "/>
<text text-anchor="start" x="63.6747" y="-861.3" font-family="Times,serif" font-size="14.00" fill="#000000">+ thePixels : Pixel[][]</text>
<polyline fill="none" stroke="#000000" points="55.6747,-853.1 273.9887,-853.1 "/>
<text text-anchor="start" x="63.6747" y="-836.5" font-family="Times,serif" font-size="14.00" fill="#000000">+ getNumOfRow() : int</text>
<text text-anchor="start" x="63.6747" y="-819.7" font-family="Times,serif" font-size="14.00" fill="#000000"> + resetColor(int, int) : Color</text>
<text text-anchor="start" x="63.6747" y="-802.9" font-family="Times,serif" font-size="14.00" fill="#000000"> + toString() : String</text>
<text text-anchor="start" x="63.6747" y="-786.1" font-family="Times,serif" font-size="14.00" fill="#000000"> + getNumOfCols() : int</text>
<text text-anchor="start" x="63.6747" y="-769.3" font-family="Times,serif" font-size="14.00" fill="#000000"> + setColor(int, int, Color) : boolean</text>
<text text-anchor="start" x="63.6747" y="-752.5" font-family="Times,serif" font-size="14.00" fill="#000000"> + getColor(int, int) : Color</text>
</g>
<!-- Pixel -->
<g id="node11" class="node">
<title>Pixel</title>
<polygon fill="none" stroke="#000000" points="102.4559,-406.5 102.4559,-539.3 277.2075,-539.3 277.2075,-406.5 102.4559,-406.5"/>
<text text-anchor="middle" x="189.8317" y="-522.7" font-family="Times,serif" font-size="14.00" fill="#000000">Pixel</text>
<polyline fill="none" stroke="#000000" points="102.4559,-514.5 277.2075,-514.5 "/>
<text text-anchor="start" x="110.4559" y="-497.9" font-family="Times,serif" font-size="14.00" fill="#000000">+ Pixel() : </text>
<polyline fill="none" stroke="#000000" points="102.4559,-489.7 277.2075,-489.7 "/>
<text text-anchor="start" x="110.4559" y="-473.1" font-family="Times,serif" font-size="14.00" fill="#000000">+ color : Color</text>
<polyline fill="none" stroke="#000000" points="102.4559,-464.9 277.2075,-464.9 "/>
<text text-anchor="start" x="110.4559" y="-448.3" font-family="Times,serif" font-size="14.00" fill="#000000">+ resetColor() : Color</text>
<text text-anchor="start" x="110.4559" y="-431.5" font-family="Times,serif" font-size="14.00" fill="#000000"> + setColor(Color) : boolean</text>
<text text-anchor="start" x="110.4559" y="-414.7" font-family="Times,serif" font-size="14.00" fill="#000000"> + getColor() : Color</text>
</g>
<!-- Canvas&#45;&gt;Pixel -->
<g id="edge9" class="edge">
<title>Canvas-&gt;Pixel</title>
<path fill="none" stroke="#595959" d="M216.8111,-732.2998C216.8111,-732.2998 216.8111,-549.5524 216.8111,-549.5524"/>
<polygon fill="#595959" stroke="#595959" points="216.8111,-551.5524 212.8111,-545.5524 216.8111,-539.5524 220.8111,-545.5524 216.8111,-551.5524"/>
<polygon fill="#595959" stroke="#595959" points="216.8111,-744.2998 212.3111,-734.2998 216.8111,-739.2998 216.8111,-734.2998 216.8111,-734.2998 216.8111,-734.2998 216.8111,-739.2998 221.3111,-734.2998 216.8111,-744.2998 216.8111,-744.2998"/>
<text text-anchor="middle" x="191.147" y="-731.6998" font-family="Times,serif" font-size="14.00" fill="#000000">thePixels</text>
<text text-anchor="middle" x="191.147" y="-714.8998" font-family="Times,serif" font-size="14.00" fill="#000000">*</text>
<text text-anchor="middle" x="213.3111" y="-543.7524" font-family="Times,serif" font-size="14.00" fill="#000000">1</text>
</g>
<!-- Canvas&#45;&gt;Pixel -->
<g id="edge10" class="edge">
<title>Canvas-&gt;Pixel</title>
<path fill="none" stroke="#595959" stroke-dasharray="5,2" d="M159.6335,-744.2998C159.6335,-744.2998 159.6335,-549.5524 159.6335,-549.5524"/>
<polygon fill="#595959" stroke="#595959" points="159.6335,-539.5524 164.1336,-549.5524 159.6335,-544.5524 159.6336,-549.5524 159.6336,-549.5524 159.6336,-549.5524 159.6335,-544.5524 155.1336,-549.5525 159.6335,-539.5524 159.6335,-539.5524"/>
<text text-anchor="middle" x="221.1971" y="-713.2" font-family="Times,serif" font-size="14.00" fill="#000000">«create»</text>
</g>
<!-- Enemy&#45;&gt;Agent -->
<g id="edge11" class="edge">
<title>Enemy-&gt;Agent</title>
<path fill="none" stroke="#000082" d="M605.4719,-744.1376C605.4719,-683.4456 605.4719,-615 605.4719,-615 605.4719,-615 619.8962,-615 619.8962,-615"/>
<polygon fill="#000082" stroke="#000082" points="619.8962,-618.5001 629.8962,-615 619.8962,-611.5001 619.8962,-618.5001"/>
</g>
<!-- HealthBar -->
<g id="node9" class="node">
<title>HealthBar</title>
<polygon fill="none" stroke="#000000" points="425.4622,-431.3 425.4622,-514.5 586.2012,-514.5 586.2012,-431.3 425.4622,-431.3"/>
<text text-anchor="middle" x="505.8317" y="-497.9" font-family="Times,serif" font-size="14.00" fill="#000000">&lt;&lt;interface&gt;&gt;</text>
<text text-anchor="middle" x="505.8317" y="-481.1" font-family="Times,serif" font-size="14.00" fill="#000000">HealthBar</text>
<polyline fill="none" stroke="#000000" points="425.4622,-472.9 586.2012,-472.9 "/>
<text text-anchor="start" x="433.4622" y="-456.3" font-family="Times,serif" font-size="14.00" fill="#000000">+ getHealth() : int</text>
<text text-anchor="start" x="433.4622" y="-439.5" font-family="Times,serif" font-size="14.00" fill="#000000"> + takeDamage(int) : void</text>
</g>
<!-- Enemy&#45;&gt;HealthBar -->
<g id="edge12" class="edge">
<title>Enemy-&gt;HealthBar</title>
<path fill="none" stroke="#008200" stroke-dasharray="5,2" d="M479.0419,-744.2998C479.0419,-744.2998 479.0419,-524.6625 479.0419,-524.6625"/>
<polygon fill="#008200" stroke="#008200" points="482.542,-524.6624 479.0419,-514.6625 475.542,-524.6625 482.542,-524.6624"/>
</g>
<!-- Farmer&#45;&gt;Agent -->
<g id="edge13" class="edge">
<title>Farmer-&gt;Agent</title>
<path fill="none" stroke="#000082" d="M996.203,-1073.5249C996.203,-1073.5249 996.203,-700.5801 996.203,-700.5801"/>
<polygon fill="#000082" stroke="#000082" points="999.7031,-700.5801 996.203,-690.5801 992.7031,-700.5802 999.7031,-700.5801"/>
</g>
<!-- GameMaster&#45;&gt;Canvas -->
<g id="edge14" class="edge">
<title>GameMaster-&gt;Canvas</title>
<path fill="none" stroke="#595959" d="M128.446,-969.2003C128.446,-969.2003 128.446,-937.6693 128.446,-937.6693"/>
<polygon fill="#595959" stroke="#595959" points="128.4461,-939.6693 124.446,-933.6693 128.446,-927.6693 132.446,-933.6693 128.4461,-939.6693"/>
<polygon fill="#595959" stroke="#595959" points="128.446,-981.2003 123.9461,-971.2003 128.446,-976.2003 128.4461,-971.2003 128.4461,-971.2003 128.4461,-971.2003 128.446,-976.2003 132.9461,-971.2003 128.446,-981.2003 128.446,-981.2003"/>
<text text-anchor="middle" x="116.3934" y="-968.6003" font-family="Times,serif" font-size="14.00" fill="#000000">map</text>
<text text-anchor="middle" x="116.3934" y="-951.8003" font-family="Times,serif" font-size="14.00" fill="#000000">1</text>
<text text-anchor="middle" x="124.946" y="-931.8693" font-family="Times,serif" font-size="14.00" fill="#000000">1</text>
</g>
<!-- GameMaster&#45;&gt;Canvas -->
<g id="edge15" class="edge">
<title>GameMaster-&gt;Canvas</title>
<path fill="none" stroke="#595959" stroke-dasharray="5,2" d="M201.2174,-981.2003C201.2174,-981.2003 201.2174,-937.6693 201.2174,-937.6693"/>
<polygon fill="#595959" stroke="#595959" points="201.2174,-927.6693 205.7175,-937.6693 201.2174,-932.6693 201.2175,-937.6693 201.2175,-937.6693 201.2175,-937.6693 201.2174,-932.6693 196.7175,-937.6694 201.2174,-927.6693 201.2174,-927.6693"/>
<text text-anchor="middle" x="225.1971" y="-950.2" font-family="Times,serif" font-size="14.00" fill="#000000">«create»</text>
</g>
<!-- GameMaster&#45;&gt;Color -->
<g id="edge16" class="edge">
<title>GameMaster-&gt;Color</title>
<path fill="none" stroke="#595959" stroke-dasharray="5,2" d="M306.0642,-981.0572C306.0642,-981.0572 306.0642,-227.3404 306.0642,-227.3404"/>
<polygon fill="#595959" stroke="#595959" points="306.0642,-217.3404 310.5642,-227.3403 306.0642,-222.3404 306.0642,-227.3404 306.0642,-227.3404 306.0642,-227.3404 306.0642,-222.3404 301.5642,-227.3404 306.0642,-217.3404 306.0642,-217.3404"/>
<text text-anchor="middle" x="333.1971" y="-713.2" font-family="Times,serif" font-size="14.00" fill="#000000">«create»</text>
</g>
<!-- Goblin&#45;&gt;Enemy -->
<g id="edge17" class="edge">
<title>Goblin-&gt;Enemy</title>
<path fill="none" stroke="#000082" d="M510.8317,-1094.2367C510.8317,-1094.2367 510.8317,-937.6062 510.8317,-937.6062"/>
<polygon fill="#000082" stroke="#000082" points="514.3318,-937.6061 510.8317,-927.6062 507.3318,-937.6062 514.3318,-937.6061"/>
</g>
<!-- Main -->
<g id="node10" class="node">
<title>Main</title>
<polygon fill="none" stroke="#000000" points="790.7427,-1335.9 790.7427,-1619.9 1012.9207,-1619.9 1012.9207,-1335.9 790.7427,-1335.9"/>
<text text-anchor="middle" x="901.8317" y="-1603.3" font-family="Times,serif" font-size="14.00" fill="#000000">Main</text>
<polyline fill="none" stroke="#000000" points="790.7427,-1595.1 1012.9207,-1595.1 "/>
<text text-anchor="start" x="798.7427" y="-1578.5" font-family="Times,serif" font-size="14.00" fill="#000000">+ Main() : </text>
<polyline fill="none" stroke="#000000" points="790.7427,-1570.3 1012.9207,-1570.3 "/>
<text text-anchor="start" x="798.7427" y="-1553.7" font-family="Times,serif" font-size="14.00" fill="#000000">+ npcs : ArrayList&lt;Agent&gt;</text>
<text text-anchor="start" x="798.7427" y="-1536.9" font-family="Times,serif" font-size="14.00" fill="#000000"> + hero : Player</text>
<text text-anchor="start" x="798.7427" y="-1520.1" font-family="Times,serif" font-size="14.00" fill="#000000"> + enemies : ArrayList&lt;Enemy&gt;</text>
<text text-anchor="start" x="798.7427" y="-1503.3" font-family="Times,serif" font-size="14.00" fill="#000000"> + gm : GameMaster</text>
<text text-anchor="start" x="798.7427" y="-1486.5" font-family="Times,serif" font-size="14.00" fill="#000000"> + state : int</text>
<polyline fill="none" stroke="#000000" points="790.7427,-1478.3 1012.9207,-1478.3 "/>
<text text-anchor="start" x="798.7427" y="-1461.7" font-family="Times,serif" font-size="14.00" fill="#000000">+ main(String[]) : void</text>
<text text-anchor="start" x="798.7427" y="-1444.9" font-family="Times,serif" font-size="14.00" fill="#000000"> + printCurrent() : void</text>
<text text-anchor="start" x="798.7427" y="-1428.1" font-family="Times,serif" font-size="14.00" fill="#000000"> + setUpWindowInMain(int[]) : void</text>
<text text-anchor="start" x="798.7427" y="-1411.3" font-family="Times,serif" font-size="14.00" fill="#000000"> + updateAgents() : void</text>
<text text-anchor="start" x="798.7427" y="-1394.5" font-family="Times,serif" font-size="14.00" fill="#000000"> + runNext() : boolean</text>
<text text-anchor="start" x="798.7427" y="-1377.7" font-family="Times,serif" font-size="14.00" fill="#000000"> + setUpGame() : void</text>
<text text-anchor="start" x="798.7427" y="-1360.9" font-family="Times,serif" font-size="14.00" fill="#000000"> + guiMain() : void</text>
<text text-anchor="start" x="798.7427" y="-1344.1" font-family="Times,serif" font-size="14.00" fill="#000000"> + setupSoundAndMusic() : Music</text>
</g>
<!-- Main&#45;&gt;Agent -->
<g id="edge18" class="edge">
<title>Main-&gt;Agent</title>
<path fill="none" stroke="#595959" d="M778.4853,-1340C778.4853,-1340 668.1906,-1340 668.1906,-1340 668.1906,-1340 668.1906,-700.5867 668.1906,-700.5867"/>
<polygon fill="#595959" stroke="#595959" points="778.4853,-1340.0001 784.4853,-1336 790.4853,-1340 784.4854,-1344 778.4853,-1340.0001"/>
<polygon fill="#595959" stroke="#595959" points="668.1906,-690.5867 672.6907,-700.5867 668.1906,-695.5867 668.1907,-700.5867 668.1907,-700.5867 668.1907,-700.5867 668.1906,-695.5867 663.6907,-700.5868 668.1906,-690.5867 668.1906,-690.5867"/>
<text text-anchor="middle" x="655.361" y="-711.5867" font-family="Times,serif" font-size="14.00" fill="#000000">npcs</text>
<text text-anchor="middle" x="655.361" y="-694.7867" font-family="Times,serif" font-size="14.00" fill="#000000">*</text>
<text text-anchor="middle" x="786.9853" y="-1344.2" font-family="Times,serif" font-size="14.00" fill="#000000">1</text>
</g>
<!-- Main&#45;&gt;Agent -->
<g id="edge19" class="edge">
<title>Main-&gt;Agent</title>
<path fill="none" stroke="#595959" stroke-dasharray="5,2" d="M790.5391,-1345C725.2488,-1345 655.4604,-1345 655.4604,-1345 655.4604,-1345 655.4604,-700.718 655.4604,-700.718"/>
<polygon fill="#595959" stroke="#595959" points="655.4604,-690.718 659.9605,-700.718 655.4604,-695.718 655.4605,-700.718 655.4605,-700.718 655.4605,-700.718 655.4604,-695.718 650.9605,-700.7181 655.4604,-690.718 655.4604,-690.718"/>
<text text-anchor="middle" x="1196.1971" y="-950.2" font-family="Times,serif" font-size="14.00" fill="#000000">«create»</text>
</g>
<!-- Main&#45;&gt;Enemy -->
<g id="edge20" class="edge">
<title>Main-&gt;Enemy</title>
<path fill="none" stroke="#595959" d="M778.72,-1350C778.72,-1350 607.9299,-1350 607.9299,-1350 607.9299,-1350 607.9299,-937.5144 607.9299,-937.5144"/>
<polygon fill="#595959" stroke="#595959" points="778.72,-1350.0001 784.72,-1346 790.72,-1350 784.7201,-1354 778.72,-1350.0001"/>
<polygon fill="#595959" stroke="#595959" points="607.9299,-927.5144 612.43,-937.5144 607.93,-932.5144 607.93,-937.5144 607.93,-937.5144 607.93,-937.5144 607.93,-932.5144 603.43,-937.5145 607.9299,-927.5144 607.9299,-927.5144"/>
<text text-anchor="middle" x="630.8647" y="-948.5144" font-family="Times,serif" font-size="14.00" fill="#000000">enemies</text>
<text text-anchor="middle" x="630.8647" y="-931.7144" font-family="Times,serif" font-size="14.00" fill="#000000">*</text>
<text text-anchor="middle" x="787.22" y="-1354.2" font-family="Times,serif" font-size="14.00" fill="#000000">1</text>
</g>
<!-- Main&#45;&gt;Farmer -->
<g id="edge21" class="edge">
<title>Main-&gt;Farmer</title>
<path fill="none" stroke="#595959" stroke-dasharray="5,2" d="M998.0197,-1335.5885C998.0197,-1335.5885 998.0197,-1199.7848 998.0197,-1199.7848"/>
<polygon fill="#595959" stroke="#595959" points="998.0197,-1189.7848 1002.5198,-1199.7848 998.0198,-1194.7848 998.0198,-1199.7848 998.0198,-1199.7848 998.0198,-1199.7848 998.0198,-1194.7848 993.5198,-1199.7849 998.0197,-1189.7848 998.0197,-1189.7848"/>
<text text-anchor="middle" x="1082.1971" y="-1304.8" font-family="Times,serif" font-size="14.00" fill="#000000">«create»</text>
</g>
<!-- Main&#45;&gt;GameMaster -->
<g id="edge22" class="edge">
<title>Main-&gt;GameMaster</title>
<path fill="none" stroke="#595959" d="M831.0195,-1323.5505C831.0195,-1323.5505 831.0195,-1221 831.0195,-1221 831.0195,-1221 402.0254,-1221 402.0254,-1221"/>
<polygon fill="#595959" stroke="#595959" points="831.0196,-1323.5505 835.0196,-1329.5505 831.0195,-1335.5505 827.0196,-1329.5504 831.0196,-1323.5505"/>
<polygon fill="#595959" stroke="#595959" points="392.0254,-1221 402.0254,-1216.5001 397.0254,-1221 402.0254,-1221.0001 402.0254,-1221.0001 402.0254,-1221.0001 397.0254,-1221 402.0254,-1225.5001 392.0254,-1221 392.0254,-1221"/>
<text text-anchor="middle" x="400.9707" y="-1208.4" font-family="Times,serif" font-size="14.00" fill="#000000">gm</text>
<text text-anchor="middle" x="400.9707" y="-1191.6" font-family="Times,serif" font-size="14.00" fill="#000000">1</text>
<text text-anchor="middle" x="827.5195" y="-1322.9505" font-family="Times,serif" font-size="14.00" fill="#000000">1</text>
</g>
<!-- Main&#45;&gt;Goblin -->
<g id="edge23" class="edge">
<title>Main-&gt;Goblin</title>
<path fill="none" stroke="#595959" stroke-dasharray="5,2" d="M790.6644,-1355C689.7118,-1355 556.4961,-1355 556.4961,-1355 556.4961,-1355 556.4961,-1179.0754 556.4961,-1179.0754"/>
<polygon fill="#595959" stroke="#595959" points="556.4961,-1169.0754 560.9961,-1179.0754 556.4961,-1174.0754 556.4961,-1179.0754 556.4961,-1179.0754 556.4961,-1179.0754 556.4961,-1174.0754 551.9961,-1179.0754 556.4961,-1169.0754 556.4961,-1169.0754"/>
<text text-anchor="middle" x="699.1971" y="-1304.8" font-family="Times,serif" font-size="14.00" fill="#000000">«create»</text>
</g>
<!-- Main&#45;&gt;Player -->
<g id="edge24" class="edge">
<title>Main-&gt;Player</title>
<path fill="none" stroke="#595959" d="M939.8955,-1323.8177C939.8955,-1323.8177 939.8955,-937.5624 939.8955,-937.5624"/>
<polygon fill="#595959" stroke="#595959" points="939.8955,-939.5624 935.8955,-933.5624 939.8955,-927.5624 943.8955,-933.5624 939.8955,-939.5624"/>
<polygon fill="#595959" stroke="#595959" points="939.8955,-1335.8177 935.3955,-1325.8177 939.8955,-1330.8177 939.8955,-1325.8177 939.8955,-1325.8177 939.8955,-1325.8177 939.8955,-1330.8177 944.3955,-1325.8177 939.8955,-1335.8177 939.8955,-1335.8177"/>
<text text-anchor="middle" x="952.3331" y="-1323.2177" font-family="Times,serif" font-size="14.00" fill="#000000">hero</text>
<text text-anchor="middle" x="952.3331" y="-1306.4177" font-family="Times,serif" font-size="14.00" fill="#000000">1</text>
<text text-anchor="middle" x="936.3955" y="-931.7624" font-family="Times,serif" font-size="14.00" fill="#000000">1</text>
</g>
<!-- Main&#45;&gt;SimpleHero -->
<g id="edge25" class="edge">
<title>Main-&gt;SimpleHero</title>
<path fill="none" stroke="#595959" stroke-dasharray="5,2" d="M871.2964,-1335.5885C871.2964,-1335.5885 871.2964,-1199.7848 871.2964,-1199.7848"/>
<polygon fill="#595959" stroke="#595959" points="871.2964,-1189.7848 875.7965,-1199.7848 871.2964,-1194.7848 871.2965,-1199.7848 871.2965,-1199.7848 871.2965,-1199.7848 871.2964,-1194.7848 866.7965,-1199.7849 871.2964,-1189.7848 871.2964,-1189.7848"/>
<text text-anchor="middle" x="893.1971" y="-1304.8" font-family="Times,serif" font-size="14.00" fill="#000000">«create»</text>
</g>
<!-- Pixel&#45;&gt;Color -->
<g id="edge26" class="edge">
<title>Pixel-&gt;Color</title>
<path fill="none" stroke="#595959" d="M242.2168,-394.1368C242.2168,-394.1368 242.2168,-227.3957 242.2168,-227.3957"/>
<polygon fill="#595959" stroke="#595959" points="242.2168,-229.3957 238.2168,-223.3957 242.2168,-217.3957 246.2168,-223.3957 242.2168,-229.3957"/>
<polygon fill="#595959" stroke="#595959" points="242.2168,-406.1368 237.7168,-396.1368 242.2168,-401.1368 242.2168,-396.1368 242.2168,-396.1368 242.2168,-396.1368 242.2168,-401.1368 246.7168,-396.1368 242.2168,-406.1368 242.2168,-406.1368"/>
<text text-anchor="middle" x="227.8339" y="-393.5368" font-family="Times,serif" font-size="14.00" fill="#000000">color</text>
<text text-anchor="middle" x="227.8339" y="-376.7368" font-family="Times,serif" font-size="14.00" fill="#000000">1</text>
<text text-anchor="middle" x="238.7168" y="-221.5957" font-family="Times,serif" font-size="14.00" fill="#000000">1</text>
</g>
<!-- Player&#45;&gt;Agent -->
<g id="edge27" class="edge">
<title>Player-&gt;Agent</title>
<path fill="none" stroke="#000082" d="M874.1353,-744.2998C874.1353,-744.2998 874.1353,-700.6067 874.1353,-700.6067"/>
<polygon fill="#000082" stroke="#000082" points="877.6354,-700.6067 874.1353,-690.6067 870.6354,-700.6068 877.6354,-700.6067"/>
</g>
<!-- Player&#45;&gt;HealthBar -->
<g id="edge28" class="edge">
<title>Player-&gt;HealthBar</title>
<path fill="none" stroke="#008200" stroke-dasharray="5,2" d="M777.5281,-744.2781C777.5281,-728.4666 777.5281,-717 777.5281,-717 777.5281,-717 532.6215,-717 532.6215,-717 532.6215,-717 532.6215,-524.5849 532.6215,-524.5849"/>
<polygon fill="#008200" stroke="#008200" points="536.1216,-524.5849 532.6215,-514.5849 529.1216,-524.585 536.1216,-524.5849"/>
</g>
<!-- SimpleHero&#45;&gt;Player -->
<g id="edge29" class="edge">
<title>SimpleHero-&gt;Player</title>
<path fill="none" stroke="#000082" d="M808.8317,-1073.6124C808.8317,-1073.6124 808.8317,-937.6227 808.8317,-937.6227"/>
<polygon fill="#000082" stroke="#000082" points="812.3318,-937.6227 808.8317,-927.6227 805.3318,-937.6228 812.3318,-937.6227"/>
</g>
</g>
</svg>